<svg width="104" height="40" viewBox="0 0 104 40" fill="none" xmlns="http://www.w3.org/2000/svg">
<path d="M25.717 4.9C26.4623 4.9 27.03 5.095 27.42 5.485C27.81 5.875 28.005 6.447 28.005 7.201V11.699C28.005 12.453 27.81 13.025 27.42 13.415C27.03 13.805 26.4623 14 25.717 14H23.741V4.9H25.717ZM25.119 12.726H25.665C26.3063 12.726 26.627 12.3533 26.627 11.608V7.292C26.627 6.54667 26.3063 6.174 25.665 6.174H25.119V12.726ZM30.9646 10.152H30.3276V14H28.9496V4.9H30.9386C31.684 4.9 32.2516 5.095 32.6416 5.485C33.0316 5.875 33.2266 6.447 33.2266 7.201V7.851C33.2266 8.813 32.9016 9.48033 32.2516 9.853L33.5126 14H32.0566L30.9646 10.152ZM30.3276 8.878H30.8866C31.528 8.878 31.8486 8.50533 31.8486 7.76V7.292C31.8486 6.54667 31.528 6.174 30.8866 6.174H30.3276V8.878ZM34.2532 14V4.9H35.6312V14H34.2532ZM37.8897 14L36.3557 4.9H37.7597L38.7867 11.842H38.8127L39.8267 4.9H41.2047L39.6707 14H37.8897ZM43.3124 6.174V8.748H45.3274V10.022H43.3124V12.726H45.8084V14H41.9344V4.9H45.8084V6.174H43.3124ZM51.0824 6.174V8.748H53.0324V10.022H51.0824V14H49.7044V4.9H53.5134V6.174H51.0824ZM54.1671 14V4.9H55.5451V14H54.1671ZM58.9995 6.2V14H57.6215V6.2H56.1525V4.9H60.4685V6.2H58.9995ZM64.2069 14L62.3999 7.968H62.3739V14H61.0739V4.9H62.6079L64.2329 10.321H64.2589V4.9H65.5589V14H64.2069ZM68.1586 6.174V8.748H70.1737V10.022H68.1586V12.726H70.6547V14H66.7807V4.9H70.6547V6.174H68.1586ZM73.1727 4.77C73.8314 4.77 74.3384 4.94767 74.6937 5.303C75.049 5.65833 75.2267 6.161 75.2267 6.811V7.045L73.9007 7.175V6.837C73.9007 6.30833 73.6667 6.044 73.1987 6.044C72.7307 6.044 72.4967 6.30833 72.4967 6.837V6.954C72.4967 7.084 72.514 7.214 72.5487 7.344C72.5834 7.474 72.644 7.60833 72.7307 7.747C72.8174 7.88567 72.9344 8.03733 73.0817 8.202C73.229 8.358 73.4197 8.53133 73.6537 8.722C73.9657 8.99067 74.23 9.242 74.4467 9.476C74.672 9.71 74.854 9.944 74.9927 10.178C75.1314 10.4033 75.231 10.6373 75.2917 10.88C75.3524 11.114 75.3827 11.3653 75.3827 11.634V12.089C75.3827 12.739 75.1964 13.2417 74.8237 13.597C74.4597 13.9523 73.9354 14.13 73.2507 14.13C72.566 14.13 72.0374 13.9523 71.6647 13.597C71.3007 13.2417 71.1187 12.739 71.1187 12.089V11.478L72.4447 11.348V11.998C72.4447 12.57 72.7047 12.856 73.2247 12.856C73.7447 12.856 74.0047 12.57 74.0047 11.998V11.699C74.0047 11.5603 73.983 11.426 73.9397 11.296C73.905 11.1573 73.84 11.0187 73.7447 10.88C73.658 10.7327 73.5367 10.581 73.3807 10.425C73.2334 10.269 73.0427 10.0913 72.8087 9.892C72.4967 9.62333 72.2324 9.372 72.0157 9.138C71.799 8.904 71.6214 8.67433 71.4827 8.449C71.3527 8.22367 71.2574 7.994 71.1967 7.76C71.1447 7.526 71.1187 7.27467 71.1187 7.006V6.811C71.1187 6.161 71.2964 5.65833 71.6517 5.303C72.007 4.94767 72.514 4.77 73.1727 4.77ZM77.5719 4.77C78.2305 4.77 78.7375 4.94767 79.0929 5.303C79.4482 5.65833 79.6259 6.161 79.6259 6.811V7.045L78.2999 7.175V6.837C78.2999 6.30833 78.0659 6.044 77.5979 6.044C77.1299 6.044 76.8959 6.30833 76.8959 6.837V6.954C76.8959 7.084 76.9132 7.214 76.9479 7.344C76.9825 7.474 77.0432 7.60833 77.1299 7.747C77.2165 7.88567 77.3335 8.03733 77.4809 8.202C77.6282 8.358 77.8189 8.53133 78.0529 8.722C78.3649 8.99067 78.6292 9.242 78.8459 9.476C79.0712 9.71 79.2532 9.944 79.3919 10.178C79.5305 10.4033 79.6302 10.6373 79.6909 10.88C79.7515 11.114 79.7819 11.3653 79.7819 11.634V12.089C79.7819 12.739 79.5955 13.2417 79.2229 13.597C78.8589 13.9523 78.3345 14.13 77.6499 14.13C76.9652 14.13 76.4365 13.9523 76.0639 13.597C75.6999 13.2417 75.5179 12.739 75.5179 12.089V11.478L76.8439 11.348V11.998C76.8439 12.57 77.1039 12.856 77.6239 12.856C78.1439 12.856 78.4039 12.57 78.4039 11.998V11.699C78.4039 11.5603 78.3822 11.426 78.3389 11.296C78.3042 11.1573 78.2392 11.0187 78.1439 10.88C78.0572 10.7327 77.9359 10.581 77.7799 10.425C77.6325 10.269 77.4419 10.0913 77.2079 9.892C76.8959 9.62333 76.6315 9.372 76.4149 9.138C76.1982 8.904 76.0205 8.67433 75.8819 8.449C75.7519 8.22367 75.6565 7.994 75.5959 7.76C75.5439 7.526 75.5179 7.27467 75.5179 7.006V6.811C75.5179 6.161 75.6955 5.65833 76.0509 5.303C76.4062 4.94767 76.9132 4.77 77.5719 4.77Z" fill="#0E0E0E"/>
<path d="M1.19973 13.6523C0.538039 13.6523 0 14.3287 0 15.1609C0 17.4725 0 21.8545 0.00139244 24.1634C0.00139244 24.9957 0.538039 25.6706 1.19973 25.6734C1.86155 25.6734 2.39681 24.9984 2.39681 24.1662C2.39681 21.8587 2.39681 17.4712 2.3982 15.1597C2.39806 14.3287 1.86155 13.6523 1.19973 13.6523Z" fill="#0E0E0E"/>
<path d="M7.25687 6.04004C7.1264 6.04004 6.99454 6.04004 6.86407 6.04004C5.19969 6.04004 3.85083 7.38625 3.85083 9.05188C3.85083 14.294 3.85083 25.0315 3.85083 30.2735C3.85083 31.9393 5.19969 33.2881 6.86407 33.2881C6.99454 33.2881 7.1264 33.2881 7.25548 33.2881C8.91986 33.2881 10.2687 31.9419 10.2687 30.2761C10.2687 25.0354 10.2687 14.2966 10.2687 9.05439C10.2701 7.38889 8.92126 6.04004 7.25687 6.04004Z" fill="#0E0E0E"/>
<rect x="11.8632" width="8.25264" height="39.7158" rx="4.12632" fill="#0E0E0E"/>
<path d="M101.957 13.6523C101.295 13.6523 100.759 14.3287 100.759 15.1609C100.759 17.4699 100.759 21.8585 100.759 24.1661C100.759 24.9984 101.296 25.6733 101.958 25.6733C102.62 25.6733 103.154 24.9982 103.154 24.1661C103.154 21.8599 103.154 17.4711 103.154 15.1595C103.154 14.3287 102.619 13.6523 101.957 13.6523Z" fill="#0E0E0E"/>
<path d="M95.8522 6.04004C95.7216 6.04004 95.5925 6.04004 95.4608 6.04004C93.7975 6.04004 92.4474 7.38625 92.4474 9.05188C92.4474 14.294 92.4474 25.0315 92.4474 30.2735C92.4474 31.9379 93.7974 33.2881 95.4617 33.2881C95.5924 33.2881 95.7242 33.2881 95.8533 33.2881C97.5177 33.2881 98.8676 31.9419 98.8676 30.2761C98.8676 25.0354 98.8676 14.2966 98.8665 9.05439C98.8679 7.38889 97.5166 6.04004 95.8522 6.04004Z" fill="#0E0E0E"/>
<rect x="82.5264" width="8.25264" height="39.7158" rx="4.12632" fill="#0E0E0E"/>
<rect x="18" y="23" width="6" height="70" rx="3" transform="rotate(-90 18 23)" fill="#0E0E0E"/>
<path d="M31.143 29.664C30.5597 29.664 30.0603 29.5823 29.645 29.419C29.2297 29.251 28.91 29.0083 28.686 28.691C28.462 28.3737 28.35 27.991 28.35 27.543C28.35 27.095 28.462 26.7147 28.686 26.402C28.91 26.0847 29.2297 25.842 29.645 25.674C30.0603 25.506 30.5597 25.422 31.143 25.422C31.1477 25.422 31.1593 25.422 31.178 25.422C31.1967 25.422 31.2153 25.422 31.234 25.422C31.2527 25.422 31.2643 25.422 31.269 25.422C31.857 25.422 32.3587 25.506 32.774 25.674C33.1893 25.842 33.509 26.0847 33.733 26.402C33.957 26.7147 34.069 27.095 34.069 27.543C34.069 27.991 33.957 28.3737 33.733 28.691C33.5137 29.0083 33.1963 29.251 32.781 29.419C32.3657 29.5823 31.8687 29.664 31.29 29.664C31.2807 29.664 31.2643 29.664 31.241 29.664C31.2223 29.664 31.2013 29.664 31.178 29.664C31.1593 29.664 31.1477 29.664 31.143 29.664ZM31.199 29.258C31.2083 29.258 31.2177 29.258 31.227 29.258C31.2363 29.258 31.2433 29.258 31.248 29.258C31.738 29.2533 32.1557 29.1857 32.501 29.055C32.851 28.9197 33.117 28.726 33.299 28.474C33.481 28.2173 33.572 27.907 33.572 27.543C33.572 27.1743 33.4787 26.864 33.292 26.612C33.11 26.36 32.8463 26.1687 32.501 26.038C32.1603 25.9027 31.7473 25.835 31.262 25.835C31.2573 25.835 31.248 25.835 31.234 25.835C31.22 25.835 31.2083 25.835 31.199 25.835C30.7043 25.835 30.282 25.9003 29.932 26.031C29.582 26.1617 29.3137 26.3553 29.127 26.612C28.9403 26.864 28.847 27.1743 28.847 27.543C28.847 27.9163 28.9403 28.2313 29.127 28.488C29.3183 28.74 29.589 28.9313 29.939 29.062C30.2937 29.1927 30.7137 29.258 31.199 29.258ZM30.968 30.168V24.932H31.451V30.168H30.968ZM34.9859 30V26.325H35.4829V29.244L37.9399 26.325H38.3809V30H37.8839V27.074L35.4339 30H34.9859ZM40.3653 30V26.626L40.4913 26.759H38.9723V26.325H42.2553V26.759H40.7363L40.8623 26.626V30H40.3653ZM42.8339 30V26.325H43.3309V27.949H45.6479V26.325H46.1449V30H45.6479V28.376H43.3309V30H42.8339ZM48.9925 30.035C48.6098 30.035 48.2738 29.9557 47.9845 29.797C47.6952 29.6337 47.4688 29.412 47.3055 29.132C47.1422 28.8473 47.0605 28.523 47.0605 28.159C47.0605 27.795 47.1375 27.473 47.2915 27.193C47.4502 26.913 47.6648 26.6937 47.9355 26.535C48.2108 26.3717 48.5188 26.29 48.8595 26.29C49.2048 26.29 49.5105 26.3693 49.7765 26.528C50.0472 26.682 50.2595 26.9013 50.4135 27.186C50.5675 27.466 50.6445 27.7903 50.6445 28.159C50.6445 28.1823 50.6422 28.208 50.6375 28.236C50.6375 28.2593 50.6375 28.285 50.6375 28.313H47.4385V27.942H50.3715L50.1755 28.089C50.1755 27.823 50.1172 27.5873 50.0005 27.382C49.8885 27.172 49.7345 27.0087 49.5385 26.892C49.3425 26.7753 49.1162 26.717 48.8595 26.717C48.6075 26.717 48.3812 26.7753 48.1805 26.892C47.9798 27.0087 47.8235 27.172 47.7115 27.382C47.5995 27.592 47.5435 27.8323 47.5435 28.103V28.18C47.5435 28.46 47.6042 28.7073 47.7255 28.922C47.8515 29.132 48.0242 29.2977 48.2435 29.419C48.4675 29.5357 48.7218 29.594 49.0065 29.594C49.2305 29.594 49.4382 29.5543 49.6295 29.475C49.8255 29.3957 49.9935 29.2743 50.1335 29.111L50.4135 29.433C50.2502 29.629 50.0448 29.7783 49.7975 29.881C49.5548 29.9837 49.2865 30.035 48.9925 30.035ZM53.1447 30.035C52.7807 30.035 52.454 29.9557 52.1647 29.797C51.88 29.6337 51.656 29.412 51.4927 29.132C51.3293 28.8473 51.2477 28.523 51.2477 28.159C51.2477 27.7903 51.3293 27.466 51.4927 27.186C51.656 26.906 51.88 26.6867 52.1647 26.528C52.454 26.3693 52.7807 26.29 53.1447 26.29C53.4573 26.29 53.7397 26.3507 53.9917 26.472C54.2437 26.5933 54.442 26.7753 54.5867 27.018L54.2157 27.27C54.0897 27.0833 53.9333 26.9457 53.7467 26.857C53.56 26.7683 53.357 26.724 53.1377 26.724C52.8763 26.724 52.6407 26.7847 52.4307 26.906C52.2207 27.0227 52.055 27.1883 51.9337 27.403C51.8123 27.6177 51.7517 27.8697 51.7517 28.159C51.7517 28.4483 51.8123 28.7003 51.9337 28.915C52.055 29.1297 52.2207 29.2977 52.4307 29.419C52.6407 29.5357 52.8763 29.594 53.1377 29.594C53.357 29.594 53.56 29.5497 53.7467 29.461C53.9333 29.3723 54.0897 29.237 54.2157 29.055L54.5867 29.307C54.442 29.545 54.2437 29.727 53.9917 29.853C53.7397 29.9743 53.4573 30.035 53.1447 30.035ZM55.0673 28.32V27.886H56.9013V28.32H55.0673ZM60.5822 30L59.0702 28.18L59.4832 27.935L61.1702 30H60.5822ZM57.8872 30V26.325H58.3842V30H57.8872ZM58.2302 28.362V27.935H59.4132V28.362H58.2302ZM59.5252 28.215L59.0632 28.145L60.5262 26.325H61.0652L59.5252 28.215ZM61.1425 29.993L61.1775 29.566C61.2102 29.5707 61.2405 29.5777 61.2685 29.587C61.3012 29.5917 61.3292 29.594 61.3525 29.594C61.5019 29.594 61.6209 29.538 61.7095 29.426C61.8029 29.314 61.8729 29.1647 61.9195 28.978C61.9662 28.7913 61.9989 28.5813 62.0175 28.348C62.0362 28.11 62.0525 27.872 62.0665 27.634L62.1295 26.325H64.8245V30H64.3275V26.612L64.4535 26.759H62.4515L62.5705 26.605L62.5145 27.669C62.5005 27.9863 62.4749 28.2897 62.4375 28.579C62.4049 28.8683 62.3512 29.1227 62.2765 29.342C62.2065 29.5613 62.1085 29.734 61.9825 29.86C61.8565 29.9813 61.6955 30.042 61.4995 30.042C61.4435 30.042 61.3852 30.0373 61.3245 30.028C61.2685 30.0187 61.2079 30.007 61.1425 29.993ZM66.1604 31.393C65.9877 31.393 65.8221 31.365 65.6634 31.309C65.5094 31.253 65.3764 31.169 65.2644 31.057L65.4954 30.686C65.5887 30.7747 65.6891 30.8423 65.7964 30.889C65.9084 30.9403 66.0321 30.966 66.1674 30.966C66.3307 30.966 66.4707 30.9193 66.5874 30.826C66.7087 30.7373 66.8231 30.5787 66.9304 30.35L67.1684 29.811L67.2244 29.734L68.7364 26.325H69.2264L67.3854 30.441C67.2827 30.679 67.1684 30.868 67.0424 31.008C66.9211 31.148 66.7881 31.246 66.6434 31.302C66.4987 31.3627 66.3377 31.393 66.1604 31.393ZM67.1404 30.105L65.4464 26.325H65.9644L67.4624 29.699L67.1404 30.105ZM71.458 30.042C71.1594 30.042 70.8934 29.993 70.66 29.895C70.4314 29.797 70.2354 29.6477 70.072 29.447C69.9087 29.2463 69.785 28.999 69.701 28.705C69.617 28.4063 69.575 28.061 69.575 27.669C69.575 27.319 69.6077 27.0133 69.673 26.752C69.7384 26.486 69.8294 26.2573 69.946 26.066C70.0627 25.8747 70.198 25.7137 70.352 25.583C70.5107 25.4477 70.681 25.3403 70.863 25.261C71.0497 25.177 71.241 25.114 71.437 25.072L73.089 24.687L73.173 25.149L71.619 25.499C71.521 25.5223 71.402 25.555 71.262 25.597C71.1267 25.639 70.9867 25.702 70.842 25.786C70.702 25.87 70.5714 25.9867 70.45 26.136C70.3287 26.2853 70.2307 26.479 70.156 26.717C70.086 26.9503 70.051 27.242 70.051 27.592C70.051 27.6667 70.0534 27.7273 70.058 27.774C70.0627 27.816 70.0674 27.8627 70.072 27.914C70.0814 27.9607 70.0884 28.0307 70.093 28.124L69.876 27.942C69.9274 27.6573 70.0324 27.41 70.191 27.2C70.3497 26.9853 70.548 26.8197 70.786 26.703C71.0287 26.5817 71.297 26.521 71.591 26.521C71.9317 26.521 72.235 26.5957 72.501 26.745C72.767 26.8897 72.9747 27.0927 73.124 27.354C73.278 27.6153 73.355 27.9187 73.355 28.264C73.355 28.6047 73.2757 28.9103 73.117 29.181C72.963 29.4517 72.7437 29.664 72.459 29.818C72.1744 29.9673 71.8407 30.042 71.458 30.042ZM71.514 29.629C71.7754 29.629 72.0064 29.5707 72.207 29.454C72.4077 29.3327 72.564 29.1693 72.676 28.964C72.7927 28.7587 72.851 28.5277 72.851 28.271C72.851 28.019 72.7927 27.795 72.676 27.599C72.564 27.403 72.4077 27.249 72.207 27.137C72.0064 27.0203 71.773 26.962 71.507 26.962C71.2457 26.962 71.0147 27.018 70.814 27.13C70.6134 27.2373 70.4547 27.389 70.338 27.585C70.226 27.781 70.17 28.0073 70.17 28.264C70.17 28.5207 70.226 28.7517 70.338 28.957C70.4547 29.1623 70.6134 29.3257 70.814 29.447C71.0194 29.5683 71.2527 29.629 71.514 29.629Z" fill="#0E0E0E"/>
</svg>
